<?xml version="1.0" encoding="UTF-8"?>
<svg width="139px" height="165px" viewBox="0 0 139 165" version="1.1" xmlns="http://www.w3.org/2000/svg" xmlns:xlink="http://www.w3.org/1999/xlink">
    <!-- Generator: Sketch 54.1 (76490) - https://sketchapp.com -->
    <title>Group 2</title>
    <desc>Created with Sketch.</desc>
    <g id="Pages" stroke="none" stroke-width="1" fill="none" fill-rule="evenodd">
        <g id="Index" transform="translate(-1098.000000, -1226.000000)" fill-rule="nonzero">
            <g id="services" transform="translate(-5.000000, 1142.000000)">
                <g id="Delivery" transform="translate(138.000000, 72.000000)">
                    <g id="delivery">
                        <g id="Group-2" transform="translate(965.001039, 12.754000)">
                            <path d="M93.1319609,39.013 C101.252961,39.013 108.076961,33.471 110.031961,25.964 L115.498961,26.778 C116.67697,26.9521898 117.773585,26.1396837 117.949961,24.962 C118.125309,23.7837012 117.312259,22.6863528 116.133961,22.511 L110.592961,21.686 C110.594961,21.64 110.596961,21.595 110.596961,21.548 C110.596961,21.366 110.590961,21.186 110.582961,21.006 C110.582961,21.006 110.131961,14.488 109.508961,11.769 C108.887961,9.05 106.973961,8.473 106.973961,8.473 C97.2039609,6.261 87.2019609,6.035 84.5989609,6.035 C81.9959609,6.035 81.4409609,7.367 81.4409609,7.367 L78.2909609,12.363 L78.2809609,12.36 C78.2049609,12.482 78.1349609,12.605 78.0619609,12.728 L78.0349609,12.771 C76.4815652,15.4349884 75.6646427,18.4641937 75.6679609,21.548 C75.6669609,31.194 83.4869609,39.013 93.1319609,39.013 L93.1319609,39.013 Z" id="Path" fill="#FFFFFF"></path>
                            <path d="M131.533961,78.322 L131.533961,78.32 L104.791961,76.152 L95.5459609,55.04 C95.5459609,55.04 95.0849609,52.266 89.5379609,46.564 C83.9889609,40.862 72.7389609,43.174 72.7389609,43.174 C72.7389609,43.174 48.8529609,47.643 40.9939609,49.492 C33.1339609,51.342 32.8259609,59.355 32.8259609,59.355 L32.1939609,63.874 L17.0159609,60.933 C15.3909309,60.6247121 13.8213287,61.6845061 13.4999609,63.307 L6.08896088,101.549 C5.77840571,103.174828 6.83975445,104.746071 8.46396088,105.065 L59.6599609,114.988 C59.7749609,115.01 59.8899609,115.012 60.0059609,115.021 L60.0079609,115.021 C59.2799609,115.125 58.7169609,114.986 58.7169609,114.986 L49.3169609,113.137 L46.2349609,130.242 L22.6749609,150.605 C20.5094288,152.313936 19.4689738,155.081985 19.9726703,157.794232 C20.4763669,160.506478 22.441289,162.716393 25.0760054,163.533866 C27.7107218,164.351339 30.5814664,163.641785 32.5319609,161.691 C32.5319609,161.691 60.2569609,139.641 62.1069609,138.1 C63.9569609,136.56 64.8799609,134.247 64.8799609,134.247 C64.8799609,134.247 69.4209609,120.299 70.6589609,117.373 C71.5069609,115.369 75.5909609,116.294 75.5909609,116.294 L98.4759609,124.925 L106.090961,153.987 C106.172961,154.617 106.332961,155.221 106.563961,155.791 L106.565961,155.791 C108.020101,159.399422 112.012093,161.274541 115.717699,160.089755 C119.423305,158.90497 121.586973,155.061714 120.677961,151.279 C119.835961,146.314 116.073961,124.233 115.116961,119.453 C114.038961,114.059 110.495961,112.519 110.495961,112.519 C110.495961,112.519 89.2279609,100.961 87.8419609,100.19 C86.4549609,99.42 86.7639609,97.416 86.7639609,97.416 L90.6939609,83.085 L93.4669609,88.941 C93.4669609,88.941 95.0859609,92.215 97.5509609,92.332 L130.907961,93.152 C132.878693,93.152 134.768694,92.3690614 136.162118,90.9754498 C137.555542,89.5818383 138.338226,87.6917318 138.337961,85.721 C138.335581,81.8619582 135.379282,78.6471353 131.533961,78.322 L131.533961,78.322 Z" id="Path" fill="#FFFFFF"></path>
                            <polygon id="Path" fill="#FFFFFF" points="60.1029609 63.053 58.3139609 68.933 68.2119609 70.852 47.9979609 66.935 48.5459609 64.439"></polygon>
                            <path d="M57.8539609,108.526 L12.5499609,99.745 L18.8199609,67.392 L31.3619609,69.823 L29.7439609,81.39 L29.1039609,85.796 C29.0989609,85.822 29.0959609,85.852 29.0919609,85.878 L29.0739609,86.005 L29.0759609,86.005 C28.8028775,88.1232686 29.4545627,90.2566125 30.8647325,91.8606878 C32.2749023,93.4647631 34.3071622,94.3844204 36.4429609,94.385 C38.5763775,94.3848457 40.6067341,93.4673894 42.016767,91.8663667 C43.4267999,90.265344 44.0803665,88.1353381 43.8109609,86.019 L46.7119609,72.796 L64.1249609,76.17 L57.8539609,108.526 L57.8539609,108.526 Z" id="Path" fill="#FFFFFF"></path>
                            <path d="M25.0489609,17.254 L63.0759609,17.254 C64.1759609,17.254 65.0759609,16.358 65.0759609,15.264 C65.0759609,14.17 64.1759609,13.274 63.0759609,13.274 L25.0489609,13.274 C23.9489609,13.274 23.0489609,14.17 23.0489609,15.264 C23.0489609,16.358 23.9489609,17.254 25.0489609,17.254 Z" id="Path" fill="#FFFFFF"></path>
                            <path d="M38.0789609,23.271 C36.9789609,23.271 36.0789609,24.167 36.0789609,25.261 C36.0789609,26.355 36.9789609,27.251 38.0789609,27.251 L61.0379609,27.251 C62.1379609,27.251 63.0379609,26.355 63.0379609,25.261 C63.0324575,24.1603377 62.1386369,23.2709862 61.0379609,23.271 L38.0789609,23.271 L38.0789609,23.271 Z" id="Path" fill="#FFFFFF"></path>
                            <path d="M87.0969609,32.978 C95.2179609,32.978 102.041961,27.436 103.996961,19.929 L109.463961,20.743 C110.64197,20.9171898 111.738585,20.1046837 111.914961,18.927 C112.090309,17.7487012 111.277259,16.6513528 110.098961,16.476 L104.557961,15.651 C104.559961,15.605 104.561961,15.56 104.561961,15.513 C104.561961,15.331 104.555961,15.151 104.547961,14.971 C104.547961,14.971 104.096961,8.453 103.473961,5.734 C102.852961,3.015 100.938961,2.438 100.938961,2.438 C91.1689609,0.226 81.1669609,3.19744231e-14 78.5629609,3.19744231e-14 C75.9589609,3.19744231e-14 75.4049609,1.332 75.4049609,1.332 L72.2549609,6.328 L72.2449609,6.325 C72.1689609,6.446 72.0989609,6.57 72.0259609,6.693 L71.9989609,6.736 C70.4455652,9.39998837 69.6286427,12.4291937 69.6319609,15.513 C69.6319609,25.159 77.4519609,32.978 87.0969609,32.978 Z" id="Path" fill="#3A3A3A"></path>
                            <path d="M125.498961,72.287 L125.498961,72.285 L98.7569609,70.117 L89.5109609,49.005 C89.5109609,49.005 89.0499609,46.231 83.5029609,40.529 C77.9539609,34.827 66.7039609,37.139 66.7039609,37.139 C66.7039609,37.139 42.8179609,41.608 34.9589609,43.456 C27.0989609,45.306 26.7909609,53.319 26.7909609,53.319 L23.7089609,75.355 L23.0689609,79.761 C23.0639609,79.787 23.0609609,79.817 23.0569609,79.843 L23.0389609,79.97 L23.0409609,79.97 C22.7678775,82.0882686 23.4195627,84.2216125 24.8297325,85.8256878 C26.2399023,87.4297631 28.2721622,88.3494204 30.4079609,88.35 C32.5413775,88.3498457 34.5717341,87.4323894 35.981767,85.8313667 C37.3917999,84.230344 38.0453665,82.1003381 37.7759609,79.984 L42.5099609,58.403 L54.0669609,57.017 L52.2779609,62.897 L62.1759609,64.816 C63.7999805,65.1359019 64.8609725,66.7070634 64.5509609,68.333 L57.1389609,106.576 C56.8614173,107.985312 55.6273375,109.002548 54.1909609,109.006 C54.1189609,109.006 54.0449609,108.99 53.9709609,108.985 C53.2429609,109.089 52.6799609,108.95 52.6799609,108.95 L43.2799609,107.101 L40.1979609,124.206 L16.6379609,144.569 C14.4724288,146.277936 13.4319738,149.045985 13.9356703,151.758232 C14.4393669,154.470478 16.404289,156.680393 19.0390054,157.497866 C21.6737218,158.315339 24.5444664,157.605785 26.4949609,155.655 C26.4949609,155.655 54.2199609,133.605 56.0699609,132.064 C57.9199609,130.524 58.8429609,128.211 58.8429609,128.211 C58.8429609,128.211 63.3839609,114.263 64.6219609,111.337 C65.4699609,109.333 69.5539609,110.258 69.5539609,110.258 L92.4389609,118.889 L100.053961,147.951 C100.135961,148.581 100.295961,149.185 100.526961,149.755 L100.528961,149.755 C101.983101,153.363422 105.975093,155.238541 109.680699,154.053755 C113.386305,152.86897 115.549973,149.025714 114.640961,145.243 C113.798961,140.278 110.036961,118.197 109.079961,113.417 C108.001961,108.023 104.458961,106.483 104.458961,106.483 C104.458961,106.483 83.1919609,94.928 81.8059609,94.156 C80.4189609,93.386 80.7279609,91.382 80.7279609,91.382 L84.6579609,77.051 L87.4309609,82.907 C87.4309609,82.907 89.0499609,86.181 91.5149609,86.298 L124.871961,87.118 C128.842422,87.1029226 132.099408,83.9688325 132.267115,80.0018862 C132.434823,76.03494 129.453982,72.6371376 125.498961,72.287 Z" id="Path" fill="#3A3A3A"></path>
                            <path d="M59.0409609,9.228 C59.0354575,10.3286623 58.1416369,11.2180138 57.0409609,11.218 L19.0139609,11.218 C17.9139609,11.218 17.0139609,10.322 17.0139609,9.228 C17.0139609,8.134 17.9139609,7.238 19.0139609,7.238 L57.0409609,7.238 C58.1409609,7.239 59.0409609,8.134 59.0409609,9.228 L59.0409609,9.228 Z" id="Path" fill="#F0C52E"></path>
                            <path d="M57.0029609,19.226 C57.0029609,20.32 56.1029609,21.216 55.0029609,21.216 L32.0429609,21.216 C30.9429609,21.216 30.0429609,20.32 30.0429609,19.226 C30.0484643,18.1253377 30.9422849,17.2359862 32.0429609,17.236 L55.0019609,17.236 C56.1029609,17.236 57.0029609,18.132 57.0029609,19.226 L57.0029609,19.226 Z" id="Path" fill="#F0C52E"></path>
                            <path d="M53.9699609,108.985 L53.9719609,108.985 C54.0449609,108.991 54.1189609,109.006 54.1919609,109.006 C55.5989609,109.006 56.8629609,108.006 57.1399609,106.576 L64.5519609,68.333 C64.8619725,66.7070634 63.8009805,65.1359019 62.1769609,64.816 L41.9629609,60.899 L40.6769609,66.761 L58.0899609,70.135 L51.8189609,102.489 L6.51496088,93.71 L12.7849609,61.357 L25.3269609,63.788 L26.1589609,57.838 L10.9809609,54.896 C9.35593093,54.5877121 7.78632872,55.6475061 7.46496088,57.27 L0.0539608792,95.514 C-0.256594286,97.1398283 0.804754447,98.7110713 2.42896088,99.03 L53.6249609,108.953 C53.7389609,108.975 53.8539609,108.976 53.9699609,108.985 Z" id="Shape" fill="#F0C42E"></path>
                        </g>
                    </g>
                </g>
            </g>
        </g>
    </g>
</svg>